<svg width="312" height="322" viewBox="0 0 312 322" fill="none" xmlns="http://www.w3.org/2000/svg">
<path fill-rule="evenodd" clip-rule="evenodd" d="M45.7868 123.48H63.6034L45.8555 123.48L45.7868 123.48Z" fill="#4741FF"/>
<path d="M0 25.0559C0 11.2179 11.2179 0 25.0559 0H63.6033C77.4413 0 88.6592 11.2179 88.6592 25.0559V77.2234C88.6592 91.0614 77.4413 102.279 63.6034 102.279H25.0559C11.2179 102.279 0 91.0614 0 77.2235L0 25.0559Z" fill="#4741FF"/>
<path fill-rule="evenodd" clip-rule="evenodd" d="M63.6719 198.648H32.5637L63.6034 198.648L63.6719 198.648Z" fill="#4741FF"/>
<path d="M63.6034 123.48H45.7868H25.0559C11.218 123.48 8.27312e-05 134.698 8.27312e-05 148.536V173.592C8.27312e-05 187.43 11.218 198.648 25.056 198.648L32.5637 198.648H63.6719H69.6149C90.904 198.648 108.162 181.39 108.162 160.101C108.162 138.811 125.421 121.553 146.71 121.553H167.912C189.201 121.553 206.459 138.811 206.459 160.101V181.302C206.459 202.592 189.201 219.85 167.912 219.85H152.491C135.477 219.85 121.038 230.873 115.925 246.167C114.505 249.309 113.715 252.797 113.715 256.469V296.944C113.715 310.782 124.933 322 138.771 322H165.754C174.231 322 181.724 317.791 186.258 311.348C186.824 310.833 187.379 310.297 187.92 309.742L300.881 193.884C315.61 178.777 315.458 154.636 300.538 139.717L205.006 44.1842C197.777 36.9551 187.972 32.8939 177.749 32.8939H130.546C124.099 32.8939 117.915 35.4548 113.356 40.0133C108.797 44.5725 106.235 50.7564 106.235 57.2044V84.9329C106.235 106.222 88.9768 123.48 67.6876 123.48C46.3984 123.48 63.6034 123.48 63.6034 123.48Z" fill="#4741FF"/>
</svg>
